<svg data-logo="logo" xmlns="http://www.w3.org/2000/svg" viewBox="0 0 322 42">
        <g id="logogram" transform="translate(0, 1) rotate(0)"><path fill-rule="evenodd" clip-rule="evenodd" d="M23.3333 0C23.7194 0 24.1033 0.00932962 24.4847 0.0280265C24.4924 0.0284028 24.4989 0.0222809 24.4989 0.0145938V0.0145938C24.4989 0.00716838 24.5049 0.0011489 24.5123 0.0011489H45.8418C46.2974 0.00137965 46.6667 0.373466 46.6667 0.83295C46.6666 1.05356 46.5798 1.26515 46.4251 1.42119L40.8322 7.05882H52.7444C53.5415 7.05882 54.27 7.52957 54.5456 8.27757C55.4857 10.829 56 13.5892 56 16.4706C56 29.4655 45.5533 40 32.6667 40C32.2808 40 31.8971 39.9896 31.5158 39.9709C31.5078 39.9705 31.5011 39.9768 31.5011 39.9848V39.9848C31.5011 39.9926 31.4949 39.9989 31.4871 39.9989H10.1582C9.7026 39.9986 9.33333 39.6265 9.33333 39.1671C9.33336 38.9464 9.42022 38.7348 9.57487 38.5788L15.1655 32.9412H3.25562C2.45846 32.9412 1.73002 32.4704 1.4544 31.7224C0.514256 29.171 0 26.4109 0 23.5294C0 10.5345 10.4467 0 23.3333 0ZM31.3177 16.6556C29.3919 14.383 26.5301 12.9412 23.3333 12.9412C17.5343 12.9412 12.8333 17.6817 12.8333 23.5294C12.8333 24.7672 13.0456 25.9547 13.4326 27.0588H20.9989L24.6823 23.3444C26.6081 25.617 29.4699 27.0588 32.6667 27.0588C38.4657 27.0588 43.1667 22.3183 43.1667 16.4706C43.1667 15.2328 42.9544 14.0453 42.5674 12.9412H35.0011L31.3177 16.6556Z" fill="#FFFFFF"></path></g>
        <g id="logotype" transform="translate(62, 7.5)"><path fill="#ffffff" d="M13.52 27L8.31 27L8.31 1.54L25.06 1.54L25.06 5.86L13.52 5.86L13.52 12.97L23.93 12.97L23.93 17.22L13.52 17.22L13.52 27ZM31.58 27L26.45 27L26.45 7.89L31.58 7.89L31.58 27ZM29.02 5.40L29.02 5.40Q27.86 5.40 27.04 4.63Q26.22 3.86 26.22 2.77L26.22 2.77Q26.22 1.67 27.04 0.90Q27.86 0.13 29.02 0.13L29.02 0.13Q30.18 0.13 31.01 0.90Q31.84 1.66 31.84 2.77L31.84 2.77Q31.84 3.86 31.01 4.63Q30.18 5.40 29.02 5.40ZM38.79 15.94L38.79 15.94L38.79 27L33.66 27L33.66 7.89L38.50 7.89L38.59 12.66L38.28 12.66Q39.03 10.27 40.56 8.96Q42.09 7.65 44.52 7.65L44.52 7.65Q46.50 7.65 47.97 8.52Q49.44 9.38 50.26 11.00Q51.08 12.61 51.08 14.85L51.08 14.85L51.08 27L45.95 27L45.95 15.74Q45.95 13.96 45.04 12.95Q44.12 11.94 42.50 11.94L42.50 11.94Q41.42 11.94 40.58 12.41Q39.73 12.88 39.26 13.77Q38.79 14.66 38.79 15.94ZM58.51 27.38L58.51 27.38Q56.70 27.38 55.26 26.74Q53.81 26.09 52.98 24.82Q52.15 23.55 52.15 21.65L52.15 21.65Q52.15 20.06 52.74 18.98Q53.33 17.91 54.35 17.26Q55.37 16.61 56.66 16.27Q57.95 15.93 59.37 15.79L59.37 15.79Q61.02 15.62 62.04 15.47Q63.06 15.33 63.53 15.01Q64.00 14.70 64.00 14.08L64.00 14.08L64.00 13.99Q64.00 13.17 63.65 12.61Q63.31 12.05 62.65 11.75Q61.98 11.45 61.01 11.45L61.01 11.45Q60.01 11.45 59.28 11.75Q58.55 12.05 58.08 12.54Q57.62 13.04 57.40 13.65L57.40 13.65L52.70 12.87Q53.20 11.21 54.34 10.05Q55.49 8.88 57.19 8.27Q58.89 7.65 61.01 7.65L61.01 7.65Q62.56 7.65 64.01 8.02Q65.47 8.39 66.62 9.16Q67.77 9.93 68.45 11.16Q69.12 12.39 69.12 14.13L69.12 14.13L69.12 27L64.27 27L64.27 24.35L64.10 24.35Q63.64 25.24 62.87 25.91Q62.10 26.59 61.01 26.98Q59.93 27.38 58.51 27.38ZM59.96 23.77L59.96 23.77Q61.18 23.77 62.09 23.29Q63.01 22.81 63.52 21.99Q64.03 21.17 64.03 20.16L64.03 20.16L64.03 18.10Q63.81 18.27 63.35 18.40Q62.89 18.54 62.32 18.64Q61.76 18.75 61.21 18.83Q60.66 18.92 60.24 18.97L60.24 18.97Q59.30 19.10 58.58 19.41Q57.86 19.72 57.47 20.22Q57.08 20.73 57.08 21.51L57.08 21.51Q57.08 22.25 57.45 22.75Q57.83 23.26 58.47 23.51Q59.11 23.77 59.96 23.77ZM76.35 15.94L76.35 15.94L76.35 27L71.22 27L71.22 7.89L76.06 7.89L76.15 12.66L75.84 12.66Q76.59 10.27 78.12 8.96Q79.65 7.65 82.08 7.65L82.08 7.65Q84.06 7.65 85.53 8.52Q87.00 9.38 87.82 11.00Q88.64 12.61 88.64 14.85L88.64 14.85L88.64 27L83.51 27L83.51 15.74Q83.51 13.96 82.60 12.95Q81.68 11.94 80.06 11.94L80.06 11.94Q78.98 11.94 78.14 12.41Q77.29 12.88 76.82 13.77Q76.35 14.66 76.35 15.94ZM99.28 27.38L99.28 27.38Q96.40 27.38 94.30 26.14Q92.21 24.90 91.07 22.68Q89.94 20.47 89.94 17.53L89.94 17.53Q89.94 14.56 91.07 12.35Q92.21 10.13 94.30 8.89Q96.40 7.65 99.28 7.65L99.28 7.65Q100.98 7.65 102.41 8.10Q103.85 8.54 104.96 9.36Q106.07 10.18 106.79 11.36Q107.50 12.54 107.78 14.01L107.78 14.01L103.01 14.90Q102.85 14.15 102.53 13.56Q102.21 12.97 101.74 12.55Q101.28 12.13 100.68 11.91Q100.07 11.69 99.33 11.69L99.33 11.69Q97.97 11.69 97.04 12.42Q96.10 13.16 95.63 14.47Q95.16 15.79 95.16 17.52L95.16 17.52Q95.16 19.22 95.63 20.53Q96.10 21.84 97.04 22.59Q97.97 23.34 99.33 23.34L99.33 23.34Q100.07 23.34 100.68 23.11Q101.30 22.88 101.78 22.45Q102.26 22.01 102.58 21.39Q102.91 20.78 103.04 20.01L103.04 20.01L107.81 20.88Q107.54 22.40 106.82 23.59Q106.10 24.78 104.99 25.63Q103.88 26.49 102.44 26.93Q100.99 27.38 99.28 27.38ZM117.69 27.38L117.69 27.38Q114.76 27.38 112.65 26.18Q110.53 24.98 109.39 22.78Q108.25 20.57 108.25 17.55L108.25 17.55Q108.25 14.59 109.38 12.37Q110.51 10.15 112.58 8.90Q114.64 7.65 117.43 7.65L117.43 7.65Q119.31 7.65 120.93 8.25Q122.56 8.85 123.79 10.06Q125.02 11.26 125.71 13.07Q126.40 14.88 126.40 17.34L126.40 17.34L126.40 18.78L110.36 18.78L110.36 15.57L123.89 15.57L121.50 16.42Q121.50 14.93 121.05 13.83Q120.59 12.73 119.69 12.12Q118.80 11.52 117.46 11.52L117.46 11.52Q116.15 11.52 115.22 12.13Q114.29 12.75 113.81 13.80Q113.33 14.85 113.33 16.20L113.33 16.20L113.33 18.47Q113.33 20.13 113.88 21.26Q114.44 22.39 115.44 22.95Q116.44 23.51 117.77 23.51L117.77 23.51Q118.68 23.51 119.41 23.26Q120.15 23.00 120.67 22.50Q121.19 21.99 121.46 21.26L121.46 21.26L126.11 22.13Q125.65 23.70 124.51 24.89Q123.36 26.08 121.64 26.73Q119.93 27.38 117.69 27.38ZM127.84 14.49L139.42 14.49L139.42 18.57L127.84 18.57L127.84 14.49ZM148.62 5.86L140.82 5.86L140.82 1.54L161.62 1.54L161.62 5.86L153.84 5.86L153.84 27L148.62 27L148.62 5.86ZM167.94 27L162.82 27L162.82 7.89L167.77 7.89L167.77 11.23L167.98 11.23Q168.51 9.45 169.74 8.54Q170.98 7.64 172.59 7.64L172.59 7.64Q172.98 7.64 173.44 7.68Q173.89 7.72 174.25 7.81L174.25 7.81L174.25 12.39Q173.91 12.27 173.26 12.20Q172.61 12.13 172.03 12.13L172.03 12.13Q170.86 12.13 169.92 12.64Q168.98 13.14 168.46 14.04Q167.94 14.93 167.94 16.13L167.94 16.13L167.94 27ZM180.12 27.38L180.12 27.38Q178.31 27.38 176.87 26.74Q175.43 26.09 174.60 24.82Q173.77 23.55 173.77 21.65L173.77 21.65Q173.77 20.06 174.36 18.98Q174.95 17.91 175.96 17.26Q176.98 16.61 178.27 16.27Q179.56 15.93 180.98 15.79L180.98 15.79Q182.64 15.62 183.65 15.47Q184.67 15.33 185.14 15.01Q185.61 14.70 185.61 14.08L185.61 14.08L185.61 13.99Q185.61 13.17 185.27 12.61Q184.93 12.05 184.26 11.75Q183.59 11.45 182.62 11.45L182.62 11.45Q181.63 11.45 180.89 11.75Q180.16 12.05 179.70 12.54Q179.24 13.04 179.01 13.65L179.01 13.65L174.31 12.87Q174.81 11.21 175.96 10.05Q177.10 8.88 178.80 8.27Q180.50 7.65 182.62 7.65L182.62 7.65Q184.18 7.65 185.63 8.02Q187.08 8.39 188.23 9.16Q189.39 9.93 190.06 11.16Q190.74 12.39 190.74 14.13L190.74 14.13L190.74 27L185.88 27L185.88 24.35L185.71 24.35Q185.25 25.24 184.48 25.91Q183.71 26.59 182.63 26.98Q181.54 27.38 180.12 27.38ZM181.58 23.77L181.58 23.77Q182.79 23.77 183.71 23.29Q184.62 22.81 185.13 21.99Q185.65 21.17 185.65 20.16L185.65 20.16L185.65 18.10Q185.42 18.27 184.96 18.40Q184.50 18.54 183.94 18.64Q183.37 18.75 182.83 18.83Q182.28 18.92 181.85 18.97L181.85 18.97Q180.91 19.10 180.19 19.41Q179.48 19.72 179.08 20.22Q178.69 20.73 178.69 21.51L178.69 21.51Q178.69 22.25 179.07 22.75Q179.44 23.26 180.08 23.51Q180.72 23.77 181.58 23.77ZM201.38 27.38L201.38 27.38Q198.49 27.38 196.40 26.14Q194.31 24.90 193.17 22.68Q192.03 20.47 192.03 17.53L192.03 17.53Q192.03 14.56 193.17 12.35Q194.31 10.13 196.40 8.89Q198.49 7.65 201.38 7.65L201.38 7.65Q203.07 7.65 204.51 8.10Q205.95 8.54 207.06 9.36Q208.17 10.18 208.89 11.36Q209.60 12.54 209.88 14.01L209.88 14.01L205.11 14.90Q204.95 14.15 204.63 13.56Q204.31 12.97 203.84 12.55Q203.38 12.13 202.78 11.91Q202.17 11.69 201.43 11.69L201.43 11.69Q200.07 11.69 199.14 12.42Q198.20 13.16 197.73 14.47Q197.26 15.79 197.26 17.52L197.26 17.52Q197.26 19.22 197.73 20.53Q198.20 21.84 199.14 22.59Q200.07 23.34 201.43 23.34L201.43 23.34Q202.17 23.34 202.78 23.11Q203.40 22.88 203.88 22.45Q204.36 22.01 204.68 21.39Q205.01 20.78 205.14 20.01L205.14 20.01L209.91 20.88Q209.64 22.40 208.92 23.59Q208.20 24.78 207.09 25.63Q205.98 26.49 204.54 26.93Q203.09 27.38 201.38 27.38ZM219.29 17.48L215.80 21.41L215.80 15.24L216.57 15.24L222.83 7.89L228.76 7.89L220.50 17.48L219.29 17.48ZM216.28 27L211.16 27L211.16 1.54L216.28 1.54L216.28 27ZM229.12 27L223.08 27L217.34 18.63L220.78 14.99L229.12 27ZM237.81 27.38L237.81 27.38Q234.89 27.38 232.77 26.18Q230.65 24.98 229.52 22.78Q228.38 20.57 228.38 17.55L228.38 17.55Q228.38 14.59 229.51 12.37Q230.64 10.15 232.70 8.90Q234.77 7.65 237.56 7.65L237.56 7.65Q239.44 7.65 241.06 8.25Q242.68 8.85 243.92 10.06Q245.15 11.26 245.84 13.07Q246.53 14.88 246.53 17.34L246.53 17.34L246.53 18.78L230.48 18.78L230.48 15.57L244.02 15.57L241.63 16.42Q241.63 14.93 241.17 13.83Q240.72 12.73 239.82 12.12Q238.92 11.52 237.59 11.52L237.59 11.52Q236.28 11.52 235.34 12.13Q234.41 12.75 233.93 13.80Q233.46 14.85 233.46 16.20L233.46 16.20L233.46 18.47Q233.46 20.13 234.01 21.26Q234.57 22.39 235.57 22.95Q236.57 23.51 237.90 23.51L237.90 23.51Q238.81 23.51 239.54 23.26Q240.28 23.00 240.80 22.50Q241.32 21.99 241.59 21.26L241.59 21.26L246.24 22.13Q245.78 23.70 244.63 24.89Q243.49 26.08 241.77 26.73Q240.05 27.38 237.81 27.38ZM252.89 27L247.76 27L247.76 7.89L252.71 7.89L252.71 11.23L252.92 11.23Q253.45 9.45 254.69 8.54Q255.93 7.64 257.53 7.64L257.53 7.64Q257.93 7.64 258.38 7.68Q258.83 7.72 259.19 7.81L259.19 7.81L259.19 12.39Q258.85 12.27 258.20 12.20Q257.55 12.13 256.97 12.13L256.97 12.13Q255.81 12.13 254.87 12.64Q253.93 13.14 253.41 14.04Q252.89 14.93 252.89 16.13L252.89 16.13L252.89 27Z"></path></g>
        
      </svg>